<svg xmlns="http://www.w3.org/2000/svg" xmlns:xlink="http://www.w3.org/1999/xlink" width="2000" zoomAndPan="magnify" viewBox="0 0 1500 1499.999933" height="2000" preserveAspectRatio="xMidYMid meet" version="1.0"><defs><g/><clipPath id="5f19d65094"><path d="M 0.601562 2.4375 L 617.640625 2.4375 L 617.640625 383 L 0.601562 383 Z M 0.601562 2.4375 " clip-rule="nonzero"/></clipPath><clipPath id="eea842606c"><path d="M 39 420 L 579 420 L 579 586.28125 L 39 586.28125 Z M 39 420 " clip-rule="nonzero"/></clipPath><clipPath id="1464e14a15"><rect x="0" width="540" y="0" height="167"/></clipPath><clipPath id="640c91dddb"><rect x="0" width="618" y="0" height="587"/></clipPath></defs><rect x="-150" width="1800" fill="#ffffff" y="-149.999993" height="1799.99992" fill-opacity="1"/><rect x="-150" width="1800" fill="#ffffff" y="-149.999993" height="1799.99992" fill-opacity="1"/><g transform="matrix(1, 0, 0, 1, 441, 457)"><g clip-path="url(#640c91dddb)"><path fill="#474444" d="M 103.46875 395.085938 L 513.671875 395.085938 L 513.671875 426.660156 L 103.46875 426.660156 Z M 103.46875 395.085938 " fill-opacity="1" fill-rule="nonzero"/><g clip-path="url(#5f19d65094)"><path fill="#474444" d="M 420.527344 181.3125 L 308.695312 2.34375 L 198.769531 181.3125 L 0.847656 76.25 L 103.46875 382.488281 L 513.539062 382.488281 C 513.539062 382.488281 615.746094 78.371094 617.351562 75.230469 C 614.308594 78.40625 420.527344 181.3125 420.527344 181.3125 Z M 309.109375 105.269531 L 372.460938 208.648438 L 308.824219 242.300781 L 244.527344 208.648438 Z M 127.832031 290.972656 L 92.914062 187.535156 L 166.554688 226.257812 Z M 173.042969 326.96875 L 217.441406 254.671875 L 309.148438 304.703125 L 399.417969 254.671875 L 445.289062 326.96875 Z M 486.300781 292.316406 L 447.578125 227.601562 L 521.21875 188.878906 Z M 486.300781 292.316406 " fill-opacity="1" fill-rule="nonzero"/></g><g clip-path="url(#eea842606c)"><g transform="matrix(1, 0, 0, 1, 39, 420)"><g clip-path="url(#1464e14a15)"><g fill="#000000" fill-opacity="1"><g transform="translate(2.368796, 134.494477)"><g><path d="M 31.734375 1.1875 C 22.472656 1.1875 15.421875 -1.804688 10.578125 -7.796875 C 5.734375 -13.796875 3.3125 -21.460938 3.3125 -30.796875 C 3.3125 -37.765625 4.566406 -43.957031 7.078125 -49.375 C 9.585938 -54.800781 13.085938 -59.03125 17.578125 -62.0625 C 22.078125 -65.101562 27.144531 -66.625 32.78125 -66.625 C 40.007812 -66.625 45.429688 -64.285156 49.046875 -59.609375 C 52.660156 -54.941406 54.46875 -49.257812 54.46875 -42.5625 C 54.46875 -37.894531 54.023438 -34.765625 53.140625 -33.171875 C 52.265625 -31.585938 50.59375 -30.796875 48.125 -30.796875 L 14.9375 -30.796875 C 14.9375 -24.097656 16.585938 -18.632812 19.890625 -14.40625 C 23.203125 -10.175781 28.46875 -8.0625 35.6875 -8.0625 C 38.78125 -8.0625 41.492188 -8.300781 43.828125 -8.78125 C 46.160156 -9.269531 47.960938 -9.753906 49.234375 -10.234375 C 50.515625 -10.722656 51.289062 -11.054688 51.5625 -11.234375 L 53.40625 -7.53125 C 53.40625 -7.351562 52.410156 -6.492188 50.421875 -4.953125 C 48.441406 -3.410156 45.84375 -2 42.625 -0.71875 C 39.414062 0.550781 35.785156 1.1875 31.734375 1.1875 Z M 43.359375 -37.9375 C 43.628906 -39.53125 43.765625 -41.296875 43.765625 -43.234375 C 43.765625 -48.515625 42.816406 -52.457031 40.921875 -55.0625 C 39.023438 -57.664062 35.648438 -58.96875 30.796875 -58.96875 C 25.515625 -58.96875 21.59375 -57.113281 19.03125 -53.40625 C 16.476562 -49.707031 15.160156 -44.203125 15.078125 -36.890625 Z M 43.359375 -37.9375 "/></g></g></g><g fill="#000000" fill-opacity="1"><g transform="translate(63.035131, 134.494477)"><g><path d="M 4.5 -57.90625 L -2.90625 -59.484375 L -2.90625 -65.3125 L 26.046875 -65.3125 L 26.046875 -59.75 L 17.578125 -57.90625 L 17.578125 -56.046875 L 31.0625 -19.828125 L 32.390625 -14.8125 L 33.71875 -21.015625 L 46.9375 -55.921875 L 46.9375 -57.765625 L 38.609375 -59.75 L 38.609375 -65.3125 L 63.0625 -65.3125 L 63.0625 -59.625 L 56.046875 -57.640625 L 33.046875 0.65625 L 28.296875 0.65625 Z M 4.5 -57.90625 "/></g></g></g><g fill="#000000" fill-opacity="1"><g transform="translate(123.437082, 134.494477)"><g><path d="M 31.203125 1.1875 C 22.210938 1.1875 15.316406 -1.765625 10.515625 -7.671875 C 5.710938 -13.578125 3.3125 -21.597656 3.3125 -31.734375 C 3.3125 -37.984375 4.539062 -43.773438 7 -49.109375 C 9.46875 -54.441406 12.992188 -58.691406 17.578125 -61.859375 C 22.160156 -65.035156 27.492188 -66.625 33.578125 -66.625 C 42.828125 -66.625 49.875 -63.78125 54.71875 -58.09375 C 59.570312 -52.414062 62 -44.640625 62 -34.765625 C 62 -27.984375 60.804688 -21.859375 58.421875 -16.390625 C 56.046875 -10.929688 52.546875 -6.632812 47.921875 -3.5 C 43.296875 -0.375 37.722656 1.1875 31.203125 1.1875 Z M 33.71875 -6.484375 C 39.707031 -6.484375 43.9375 -8.640625 46.40625 -12.953125 C 48.875 -17.273438 50.109375 -23.753906 50.109375 -32.390625 C 50.109375 -41.640625 48.804688 -48.378906 46.203125 -52.609375 C 43.609375 -56.847656 39.132812 -58.96875 32.78125 -58.96875 C 28.019531 -58.96875 24.363281 -57.953125 21.8125 -55.921875 C 19.257812 -53.890625 17.519531 -51 16.59375 -47.25 C 15.664062 -43.507812 15.203125 -38.554688 15.203125 -32.390625 C 15.203125 -23.929688 16.585938 -17.5 19.359375 -13.09375 C 22.140625 -8.6875 26.925781 -6.484375 33.71875 -6.484375 Z M 33.71875 -6.484375 "/></g></g></g><g fill="#000000" fill-opacity="1"><g transform="translate(189.125871, 134.494477)"><g><path d="M 1.984375 -5.421875 L 11.109375 -7.265625 L 11.109375 -57.765625 L 3.046875 -57.765625 L 3.046875 -63.984375 L 10.96875 -65.578125 C 11.320312 -70.773438 12.734375 -75.421875 15.203125 -79.515625 C 17.671875 -83.617188 20.84375 -86.835938 24.71875 -89.171875 C 28.59375 -91.503906 32.738281 -92.671875 37.15625 -92.671875 C 39.53125 -92.671875 41.351562 -92.078125 42.625 -90.890625 C 43.90625 -89.703125 44.546875 -88.179688 44.546875 -86.328125 C 44.546875 -84.828125 44.128906 -83.484375 43.296875 -82.296875 C 42.460938 -81.109375 41.644531 -80.335938 40.84375 -79.984375 C 36.4375 -81.128906 33.175781 -81.960938 31.0625 -82.484375 C 28.945312 -83.015625 27.316406 -83.28125 26.171875 -83.28125 C 24.503906 -83.28125 23.097656 -82.882812 21.953125 -82.09375 L 21.953125 -65.3125 L 38.734375 -65.3125 L 38.734375 -61.203125 L 37.015625 -57.765625 L 21.953125 -57.765625 L 21.953125 -7.53125 L 35.6875 -5.421875 L 35.6875 0 L 1.984375 0 Z M 1.984375 -5.421875 "/></g></g></g><g fill="#000000" fill-opacity="1"><g transform="translate(228.777049, 134.494477)"><g><path d="M 31.328125 1.1875 C 25.160156 1.1875 20.378906 -0.394531 16.984375 -3.5625 C 13.585938 -6.738281 11.890625 -11.234375 11.890625 -17.046875 L 11.890625 -56.046875 L 0.921875 -57.90625 L 0.921875 -62.921875 L 19.03125 -66.625 L 22.734375 -64.78125 L 22.734375 -22.734375 C 22.734375 -17.003906 23.789062 -13.015625 25.90625 -10.765625 C 28.019531 -8.523438 31.769531 -7.40625 37.15625 -7.40625 C 39 -7.40625 41.132812 -7.753906 43.5625 -8.453125 C 45.988281 -9.160156 48.125 -10.046875 49.96875 -11.109375 L 49.96875 -56.046875 L 39.125 -57.90625 L 39.125 -62.921875 L 57.25 -66.625 L 60.953125 -64.78125 L 60.953125 -9.390625 L 70.328125 -7.265625 L 70.328125 -2.25 L 51.953125 0.390625 L 49.96875 -6.21875 L 49.84375 -6.078125 C 47.90625 -3.878906 45.21875 -2.117188 41.78125 -0.796875 C 38.34375 0.523438 34.859375 1.1875 31.328125 1.1875 Z M 31.328125 1.1875 "/></g></g></g><g fill="#000000" fill-opacity="1"><g transform="translate(302.396095, 134.494477)"><g><path d="M 10.96875 -20.09375 L 12.828125 -9.78125 C 14.148438 -8.8125 15.890625 -7.953125 18.046875 -7.203125 C 20.203125 -6.453125 22.648438 -6.078125 25.390625 -6.078125 C 30.492188 -6.078125 34.035156 -7.085938 36.015625 -9.109375 C 38.003906 -11.140625 39 -13.960938 39 -17.578125 C 39 -19.867188 38.359375 -21.71875 37.078125 -23.125 C 35.804688 -24.539062 34.222656 -25.625 32.328125 -26.375 C 30.429688 -27.125 27.804688 -27.9375 24.453125 -28.8125 C 20.222656 -29.875 16.765625 -30.976562 14.078125 -32.125 C 11.390625 -33.269531 9.097656 -35.117188 7.203125 -37.671875 C 5.304688 -40.234375 4.359375 -43.671875 4.359375 -47.984375 C 4.359375 -53.984375 6.601562 -58.585938 11.09375 -61.796875 C 15.59375 -65.015625 21.367188 -66.625 28.421875 -66.625 C 32.210938 -66.625 35.957031 -66.226562 39.65625 -65.4375 C 43.363281 -64.644531 45.921875 -63.851562 47.328125 -63.0625 L 45.484375 -46.53125 L 40.0625 -46.53125 L 38.203125 -57.109375 C 38.203125 -57.203125 36.921875 -57.554688 34.359375 -58.171875 C 31.804688 -58.785156 29.472656 -59.09375 27.359375 -59.09375 C 22.609375 -59.09375 19.285156 -58.320312 17.390625 -56.78125 C 15.492188 -55.238281 14.546875 -52.789062 14.546875 -49.4375 C 14.546875 -47.414062 15.160156 -45.765625 16.390625 -44.484375 C 17.628906 -43.203125 19.148438 -42.207031 20.953125 -41.5 C 22.765625 -40.800781 25.300781 -40.007812 28.5625 -39.125 C 32.875 -37.976562 36.414062 -36.789062 39.1875 -35.5625 C 41.96875 -34.332031 44.347656 -32.414062 46.328125 -29.8125 C 48.316406 -27.207031 49.3125 -23.703125 49.3125 -19.296875 C 49.3125 -11.984375 47.039062 -6.738281 42.5 -3.5625 C 37.957031 -0.394531 32.078125 1.1875 24.859375 1.1875 C 20.535156 1.1875 16.347656 0.613281 12.296875 -0.53125 C 8.242188 -1.675781 5.46875 -2.820312 3.96875 -3.96875 L 5.546875 -20.09375 Z M 10.96875 -20.09375 "/></g></g></g><g fill="#000000" fill-opacity="1"><g transform="translate(356.982546, 134.494477)"><g><path d="M 18.375 -75.09375 C 16.175781 -75.09375 14.390625 -75.84375 13.015625 -77.34375 C 11.648438 -78.84375 10.96875 -80.820312 10.96875 -83.28125 C 10.96875 -85.664062 11.738281 -87.71875 13.28125 -89.4375 C 14.820312 -91.15625 16.738281 -92.015625 19.03125 -92.015625 C 21.320312 -92.015625 23.128906 -91.304688 24.453125 -89.890625 C 25.773438 -88.484375 26.4375 -86.546875 26.4375 -84.078125 C 26.4375 -81.609375 25.707031 -79.492188 24.25 -77.734375 C 22.800781 -75.972656 20.84375 -75.09375 18.375 -75.09375 Z M 3.703125 -5.421875 L 14.28125 -7.265625 L 14.28125 -54.328125 L 3.703125 -56.1875 L 3.703125 -61.609375 L 22.078125 -65.3125 L 25.125 -64.125 L 25.125 -7.265625 L 35.4375 -5.421875 L 35.4375 0 L 3.703125 0 Z M 3.703125 -5.421875 "/></g></g></g><g fill="#000000" fill-opacity="1"><g transform="translate(395.708538, 134.494477)"><g><path d="M 31.203125 1.1875 C 22.210938 1.1875 15.316406 -1.765625 10.515625 -7.671875 C 5.710938 -13.578125 3.3125 -21.597656 3.3125 -31.734375 C 3.3125 -37.984375 4.539062 -43.773438 7 -49.109375 C 9.46875 -54.441406 12.992188 -58.691406 17.578125 -61.859375 C 22.160156 -65.035156 27.492188 -66.625 33.578125 -66.625 C 42.828125 -66.625 49.875 -63.78125 54.71875 -58.09375 C 59.570312 -52.414062 62 -44.640625 62 -34.765625 C 62 -27.984375 60.804688 -21.859375 58.421875 -16.390625 C 56.046875 -10.929688 52.546875 -6.632812 47.921875 -3.5 C 43.296875 -0.375 37.722656 1.1875 31.203125 1.1875 Z M 33.71875 -6.484375 C 39.707031 -6.484375 43.9375 -8.640625 46.40625 -12.953125 C 48.875 -17.273438 50.109375 -23.753906 50.109375 -32.390625 C 50.109375 -41.640625 48.804688 -48.378906 46.203125 -52.609375 C 43.609375 -56.847656 39.132812 -58.96875 32.78125 -58.96875 C 28.019531 -58.96875 24.363281 -57.953125 21.8125 -55.921875 C 19.257812 -53.890625 17.519531 -51 16.59375 -47.25 C 15.664062 -43.507812 15.203125 -38.554688 15.203125 -32.390625 C 15.203125 -23.929688 16.585938 -17.5 19.359375 -13.09375 C 22.140625 -8.6875 26.925781 -6.484375 33.71875 -6.484375 Z M 33.71875 -6.484375 "/></g></g></g><g fill="#000000" fill-opacity="1"><g transform="translate(461.397327, 134.494477)"><g><path d="M 3.4375 -5.421875 L 14.015625 -7.265625 L 14.015625 -54.328125 L 3.4375 -56.1875 L 3.4375 -61.609375 L 23.140625 -65.3125 L 24.1875 -60.953125 L 24.453125 -60.15625 C 32.472656 -64.46875 39.523438 -66.625 45.609375 -66.625 C 51.078125 -66.625 55.328125 -65.035156 58.359375 -61.859375 C 61.398438 -58.691406 62.921875 -54.242188 62.921875 -48.515625 L 62.921875 -7.265625 L 73.5 -5.421875 L 73.5 0 L 41.78125 0 L 41.78125 -5.421875 L 52.09375 -7.265625 L 52.09375 -46.671875 C 52.09375 -50.460938 50.988281 -53.191406 48.78125 -54.859375 C 46.582031 -56.535156 43.054688 -57.375 38.203125 -57.375 C 35.910156 -57.375 33.488281 -57.21875 30.9375 -56.90625 C 28.382812 -56.601562 26.359375 -56.234375 24.859375 -55.796875 L 24.859375 -7.265625 L 35.171875 -5.421875 L 35.171875 0 L 3.4375 0 Z M 3.4375 -5.421875 "/></g></g></g></g></g></g></g></g></svg>
